<?xml version="1.0" standalone="no"?>
<!DOCTYPE svg PUBLIC "-//W3C//DTD SVG 20010904//EN"
 "http://www.w3.org/TR/2001/REC-SVG-20010904/DTD/svg10.dtd">
<svg version="1.0" xmlns="http://www.w3.org/2000/svg"
 width="313.000000pt" height="62.000000pt" viewBox="0 0 313.000000 62.000000"
 preserveAspectRatio="xMidYMid meet">

<g transform="translate(0.000000,62.000000) scale(0.100000,-0.100000)"
fill="#000000" stroke="none">
<path d="M883 423 c-65 -3 -83 -7 -83 -18 0 -10 10 -15 31 -15 l31 0 -4 -70
c-3 -69 -3 -70 22 -70 25 0 25 1 22 71 l-4 71 36 -4 c32 -4 36 -1 36 19 0 13
-1 22 -2 21 -2 -1 -40 -4 -85 -5z"/>
<path d="M2710 405 c0 -18 5 -20 36 -17 l36 4 -4 -71 c-3 -70 -3 -71 22 -71
25 0 25 1 22 71 l-4 71 36 -4 c31 -3 36 -1 36 17 0 19 -6 20 -90 20 -84 0 -90
-1 -90 -20z"/>
<path d="M165 335 c0 -79 1 -85 20 -85 18 0 20 5 17 35 l-4 35 57 0 57 0 -4
-35 c-3 -30 -1 -35 17 -35 19 0 20 6 20 85 0 79 -1 85 -20 85 -18 0 -20 -5
-17 -35 l4 -35 -57 0 -57 0 4 35 c3 30 1 35 -17 35 -19 0 -20 -6 -20 -85z"/>
<path d="M435 383 c-4 -21 -20 -59 -36 -85 l-29 -48 30 0 c17 0 29 3 29 8 -4
25 4 32 42 32 32 0 42 -4 46 -20 4 -14 14 -20 33 -20 l28 0 -44 77 c-24 42
-41 80 -38 85 3 4 -8 8 -24 8 -26 0 -31 -4 -37 -37z m55 -55 c0 -4 -11 -8 -25
-8 -23 0 -24 2 -13 26 11 24 13 25 25 8 7 -10 13 -21 13 -26z"/>
<path d="M605 335 c0 -81 1 -85 22 -85 17 0 21 5 18 20 -6 31 5 50 27 50 21 0
57 -36 58 -57 0 -8 13 -13 31 -13 l31 0 -27 32 c-27 31 -27 32 -6 40 20 7 26
23 21 58 -3 29 -33 40 -104 40 l-71 0 0 -85z m138 43 c9 -27 -6 -38 -52 -38
-43 0 -47 2 -47 25 0 23 4 25 47 25 29 0 49 -5 52 -12z"/>
<path d="M1050 402 c0 -9 -18 -48 -39 -85 l-40 -67 30 0 c16 0 28 3 28 8 -4
26 4 32 47 32 37 0 47 -4 51 -20 3 -13 14 -20 29 -20 13 0 24 2 24 5 0 3 -18
39 -40 79 -22 40 -37 76 -33 79 3 4 -8 7 -25 7 -24 0 -32 -4 -32 -18z m50 -74
c0 -4 -9 -8 -20 -8 -21 0 -24 8 -13 36 6 16 7 16 20 -2 7 -10 13 -21 13 -26z"/>
<path d="M1230 413 c-20 -8 -30 -24 -30 -51 0 -26 32 -42 86 -42 22 0 34 -5
34 -14 0 -28 -62 -35 -97 -11 -19 13 -22 13 -27 -1 -9 -23 -9 -22 33 -35 55
-16 109 -4 123 27 16 34 -5 53 -68 62 -34 5 -49 12 -49 22 0 21 51 25 80 6 21
-14 24 -14 29 1 7 18 8 16 -21 32 -23 12 -67 13 -93 4z"/>
<path d="M1465 335 c0 -80 1 -85 21 -85 14 0 21 6 21 18 0 50 1 51 61 54 56 3
57 4 60 34 5 49 -18 64 -96 64 l-67 0 0 -85z m125 29 c0 -23 -3 -25 -42 -22
-36 2 -44 7 -46 26 -3 20 1 22 42 22 43 0 46 -2 46 -26z"/>
<path d="M1700 408 c-32 -17 -52 -60 -44 -92 10 -43 40 -61 101 -61 48 0 58 4
79 28 30 35 31 68 1 102 -27 32 -97 44 -137 23z m98 -34 c12 -8 22 -24 22 -35
0 -27 -35 -59 -65 -59 -28 0 -65 32 -65 55 0 23 37 55 63 55 12 0 33 -7 45
-16z"/>
<path d="M1895 335 l0 -85 57 0 c31 0 68 5 82 11 34 16 52 70 36 108 -15 37
-48 51 -118 51 l-57 0 0 -85z m127 38 c41 -37 9 -93 -54 -93 -21 0 -39 3 -39
8 -1 4 -2 28 -4 55 l-3 47 41 0 c24 0 48 -7 59 -17z"/>
<path d="M2149 405 c-82 -45 -40 -155 60 -155 39 0 91 20 91 34 0 22 -12 26
-34 11 -44 -32 -126 -6 -126 40 0 46 82 72 126 40 20 -14 34 -11 34 6 0 15
-58 39 -92 39 -18 -1 -45 -7 -59 -15z"/>
<path d="M2390 402 c0 -9 -18 -48 -39 -85 l-40 -67 30 0 c16 0 28 3 28 8 -4
26 4 32 47 32 37 0 47 -4 51 -20 4 -14 14 -20 33 -20 l28 0 -44 77 c-24 42
-41 80 -38 85 3 4 -9 8 -25 8 -23 0 -31 -5 -31 -18z m50 -74 c0 -4 -11 -8 -25
-8 -23 0 -24 2 -13 26 11 24 13 25 25 8 7 -10 13 -21 13 -26z"/>
<path d="M2580 413 c-20 -8 -30 -24 -30 -49 0 -25 37 -44 85 -44 23 0 35 -5
35 -14 0 -28 -62 -35 -97 -11 -19 13 -22 13 -27 -2 -8 -19 7 -30 51 -39 47 -9
82 3 95 32 16 33 -7 56 -64 63 -29 4 -43 11 -43 21 0 21 58 25 78 6 13 -14 16
-14 21 1 7 18 8 16 -21 32 -23 12 -58 13 -83 4z"/>
</g>
</svg>
